<svg t="1582881914818" class="icon" viewBox="0 0 1024 1024" version="1.1" xmlns="http://www.w3.org/2000/svg" p-id="2821" width="16" height="16"><path d="M113.778 56.889h56.889V967.11h-56.89z" fill="#999999" p-id="2822"></path><path d="M113.778 56.889h56.889V967.11h-56.89z m625.778 0h56.888v170.667h-56.888z" fill="#999999" p-id="2823"></path><path d="M739.556 56.889h56.888v170.667h-56.888z m0 796.444h56.888V1024h-56.888z" fill="#999999" p-id="2824"></path><path d="M739.556 853.333h56.888V1024h-56.888zM113.778 56.89h625.778v56.889H113.778z" fill="#999999" p-id="2825"></path><path d="M113.778 56.889h625.778v56.889H113.778z m0 910.222h625.778V1024H113.778z" fill="#999999" p-id="2826"></path><path d="M113.778 967.111h625.778V1024H113.778zM284.444 512h568.89v56.889h-568.89z" fill="#999999" p-id="2827"></path><path d="M284.444 512h568.89v56.889h-568.89z" fill="#999999" p-id="2828"></path><path d="M904.533 563.2l17.067-22.756-199.111-199.11-39.822 39.822 159.289 159.288-159.29 164.978 39.823 39.822z" fill="#999999" p-id="2829"></path></svg>