<svg t="1584495441240" class="icon" viewBox="0 0 1024 1024" version="1.1" xmlns="http://www.w3.org/2000/svg" p-id="14446" width="16" height="16"><path d="M756.341948 867.328011H111.773992A111.064992 111.064992 0 0 1 0.788 756.342018V111.774062A111.064992 111.064992 0 0 1 111.773992 0.78807H686.629953a39.384997 39.384997 0 0 1 0 78.768995H111.773992a32.294998 32.294998 0 0 0-32.216997 32.216997v644.489956a32.294998 32.294998 0 0 0 32.216997 32.215998h644.489956a32.294998 32.294998 0 0 0 32.215998-32.216998V566.981031a39.384997 39.384997 0 0 1 78.769995 0v189.281987a111.064992 111.064992 0 0 1-110.907993 111.064993z" p-id="14447"></path><path d="M984.614933 1024H293.72998a39.384997 39.384997 0 0 1 0-78.769995h651.499955v-383.999973a39.384997 39.384997 0 0 1 78.769995 0v423.384971A39.384997 39.384997 0 0 1 984.614933 1024z m0-1023.99993a39.541997 39.541997 0 0 0-27.883998 11.499999L455.443969 512.788035a39.384997 39.384997 0 0 0 55.767996 55.767996L1012.499931 67.270065A39.384997 39.384997 0 0 0 984.614933 0.00007z" p-id="14448"></path><path d="M262.773982 278.528051a39.384997 39.384997 0 0 0-27.883998 67.189995l222.759985 222.759985a39.462997 39.462997 0 0 0 55.767996 0.078 39.384997 39.384997 0 0 0 0-55.689996L290.57998 290.02805a38.911997 38.911997 0 0 0-27.805998-11.499999z" p-id="14449"></path></svg>