<svg t="1582621763870" class="icon" viewBox="0 0 1024 1024" version="1.1" xmlns="http://www.w3.org/2000/svg" p-id="2805" width="18" height="18"><path d="M972.026 265.4a16.588 16.588 0 0 0 0 33.176c10.366 0 18.8 8.434 18.8 18.8v601.572c0 10.366-8.434 18.8-18.8 18.8H122.748c-49.39 0-89.572-40.182-89.572-89.572S73.356 758.6 122.748 758.6a16.588 16.588 0 0 0 16.588-16.588V298.574h89.572a16.588 16.588 0 0 0 0-33.176H139.334V69.668a16.588 16.588 0 0 0-16.588-16.588C55.064 53.08 0 108.144 0 175.828v672.346c0 67.684 55.064 122.748 122.748 122.748h849.278c28.658 0 51.974-23.316 51.974-51.974V317.374c0-28.66-23.316-51.974-51.974-51.974zM33.174 175.828c0-43.722 31.494-80.23 72.984-88.032v638.748c-28.622 3.884-54.144 17.672-72.984 37.786V175.828z" fill="" p-id="2806"></path><path d="M759.712 265.4h-283.1a16.588 16.588 0 0 0 0 33.176h283.1a16.588 16.588 0 0 0 0-33.176zM772.884 767.326L312.858 165.754a16.586 16.586 0 0 0-29.764 10.074V777.4a16.588 16.588 0 0 0 16.588 16.588h460.026a16.59 16.59 0 0 0 13.176-26.662z m-456.616-6.514V224.824L726.14 760.812H316.268z" fill="" p-id="2807"></path><path d="M593.862 678.856l-192.54-251.782a16.59 16.59 0 0 0-29.762 10.076v251.782a16.588 16.588 0 0 0 16.588 16.588h192.54a16.59 16.59 0 0 0 13.174-26.664z m-189.128-6.51v-186.198l142.386 186.198h-142.386zM916.652 187.358l-35.386-88.466a16.584 16.584 0 0 0-30.8 0L815.08 187.358a16.562 16.562 0 0 0-1.188 6.162v636.96c0 18.904 15.378 34.28 34.28 34.28h35.386c18.904 0 34.28-15.378 34.28-34.28V193.52a16.52 16.52 0 0 0-1.186-6.162z m-50.786-37.642l17.964 44.91H847.9l17.966-44.91z m18.8 680.764a1.108 1.108 0 0 1-1.106 1.106h-35.386a1.108 1.108 0 0 1-1.106-1.106v-36.492h37.598v36.492z m0-69.668h-37.598V227.802h37.598v533.01z" fill="" p-id="2808"></path></svg>